<?xml version="1.0" standalone="no"?>
<!DOCTYPE svg PUBLIC "-//W3C//DTD SVG 20010904//EN"
 "http://www.w3.org/TR/2001/REC-SVG-20010904/DTD/svg10.dtd">
<svg version="1.0" xmlns="http://www.w3.org/2000/svg"
 width="512.000000pt" height="512.000000pt" viewBox="0 0 512.000000 512.000000"
 preserveAspectRatio="xMidYMid meet">
<metadata>
Created by potrace 1.14, written by Peter Selinger 2001-2017
</metadata>
<g transform="translate(0.000000,512.000000) scale(0.100000,-0.100000)"
fill="#000000" stroke="none">
<path d="M2125 4611 c-143 -40 -278 -131 -311 -207 l-13 -31 -102 1 -103 1 -7
27 c-12 45 -47 85 -92 107 -41 20 -59 21 -367 21 -303 0 -326 -1 -365 -20 -68
-33 -110 -111 -98 -183 5 -31 3 -33 -73 -72 -146 -75 -286 -195 -392 -336 -23
-31 -42 -59 -42 -63 0 -3 -11 -23 -25 -44 -37 -56 -102 -236 -119 -332 -13
-73 -15 -223 -13 -1080 l2 -995 27 -98 c116 -424 444 -724 876 -802 64 -12
355 -14 1657 -14 888 0 1598 4 1620 9 22 4 54 11 70 14 49 8 67 13 134 36 367
124 646 452 715 840 22 127 22 1966 0 2085 -86 458 -430 802 -883 882 -67 12
-176 15 -494 16 l-408 1 -15 30 c-20 42 -32 56 -85 99 -54 43 -150 89 -234
111 -92 24 -774 22 -860 -3z m2080 -590 c311 -82 517 -303 574 -615 5 -28 8
-469 7 -1005 -2 -950 -2 -956 -24 -1026 -48 -154 -143 -298 -260 -391 -91 -72
-232 -134 -342 -151 -25 -4 -749 -7 -1610 -8 -1485 0 -1569 1 -1640 18 -217
54 -404 203 -500 402 -77 159 -74 105 -74 1170 0 523 3 971 7 996 34 217 171
415 364 527 61 36 182 81 238 89 22 3 42 7 44 9 2 2 711 4 1575 4 1494 -1
1574 -1 1641 -19z"/>
<path d="M1086 3923 c-1 -1 -26 -3 -56 -4 -185 -8 -385 -132 -489 -304 -63
-103 -83 -183 -88 -351 l-6 -150 334 1 c184 0 339 4 346 8 7 4 21 27 32 50 11
23 26 51 33 62 58 90 92 141 97 145 4 3 19 23 36 45 42 57 189 203 260 256 98
76 219 148 322 195 54 24 96 44 93 45 -10 2 -912 4 -914 2z"/>
<path d="M3120 3918 c0 -5 5 -8 10 -8 24 0 224 -103 306 -158 219 -147 408
-354 519 -570 15 -29 32 -56 39 -60 6 -4 161 -7 345 -7 l333 -1 -4 151 c-4
128 -9 161 -31 223 -59 169 -173 297 -334 375 -67 32 -102 42 -188 53 -70 9
-995 11 -995 2z"/>
<path d="M2529 3856 c-2 -2 -44 -7 -94 -10 -122 -9 -224 -32 -355 -79 -439
-156 -777 -526 -896 -982 -49 -186 -55 -465 -14 -650 59 -270 185 -499 380
-696 58 -58 132 -126 165 -150 185 -135 432 -236 651 -266 76 -10 312 -10 389
0 206 28 416 110 605 235 104 69 296 259 366 362 106 154 184 334 224 515 26
115 36 373 19 488 -60 412 -288 771 -634 998 -215 142 -464 222 -707 228 -45
1 -85 4 -89 6 -3 3 -8 3 -10 1z m221 -351 c351 -69 637 -288 791 -606 36 -74
78 -199 85 -254 3 -22 10 -58 14 -79 9 -41 7 -287 -3 -302 -3 -5 -8 -28 -12
-51 -10 -67 -61 -209 -106 -292 -133 -246 -357 -436 -620 -524 -128 -43 -355
-64 -484 -45 -408 62 -742 333 -880 716 -13 37 -28 87 -34 112 -5 25 -13 59
-16 75 -14 64 -13 271 1 350 73 401 329 709 709 852 22 9 87 26 145 38 87 19
129 23 240 20 74 -2 151 -6 170 -10z"/>
<path d="M2489 3329 c-385 -31 -705 -303 -805 -684 -14 -54 -18 -105 -18 -220
1 -133 4 -160 27 -238 124 -405 473 -662 887 -652 63 2 129 6 145 9 346 75
600 307 701 643 23 76 27 107 28 228 1 150 -2 177 -29 270 -102 346 -415 607
-770 641 -27 3 -57 6 -65 7 -8 2 -54 -1 -101 -4z m384 -143 c109 -48 177 -124
177 -197 0 -112 -155 -172 -309 -119 -191 64 -271 217 -161 307 55 45 202 50
293 9z m-484 -1389 c131 -47 211 -109 211 -163 0 -102 -341 -48 -471 76 -48
45 -51 86 -9 108 40 21 181 10 269 -21z"/>
<path d="M4242 1394 c-51 -30 -84 -89 -84 -149 0 -49 13 -77 51 -118 135 -146
370 22 278 199 -47 91 -156 121 -245 68z"/>
</g>
</svg>
