<?xml version="1.0" standalone="no"?>
<!DOCTYPE svg PUBLIC "-//W3C//DTD SVG 20010904//EN"
 "http://www.w3.org/TR/2001/REC-SVG-20010904/DTD/svg10.dtd">
<svg version="1.0" xmlns="http://www.w3.org/2000/svg"
 width="700.000000pt" height="700.000000pt" viewBox="0 0 700.000000 700.000000"
 preserveAspectRatio="xMidYMid meet">
<metadata>
Created by potrace 1.14, written by Peter Selinger 2001-2017
</metadata>
<g transform="translate(0.000000,700.000000) scale(0.100000,-0.100000)"
fill="#000000" stroke="none">
<path d="M2937 6124 c-1 -1 -24 -4 -52 -7 -148 -16 -292 -72 -411 -159 -33
-25 -166 -150 -295 -278 -170 -170 -256 -248 -314 -285 -82 -53 -176 -96 -255
-116 -25 -6 -54 -13 -65 -16 -20 -5 -162 -9 -590 -17 -257 -5 -306 -13 -448
-79 -251 -116 -431 -345 -491 -624 -12 -58 -14 -277 -14 -1478 0 -1544 -3
-1478 58 -1631 53 -134 159 -279 272 -371 102 -83 269 -155 418 -179 57 -10
5408 -12 5475 -3 158 22 271 65 400 152 54 37 141 119 188 176 80 99 153 263
175 396 4 22 7 684 7 1470 l0 1430 -23 85 c-95 357 -363 592 -747 655 -16 2
-181 5 -365 6 -360 1 -415 6 -548 54 -73 26 -139 61 -218 116 -23 16 -149 134
-279 264 -130 129 -265 255 -300 280 -104 75 -261 137 -383 151 -46 6 -1189
13 -1195 8z m-1759 -1330 c170 -71 178 -309 13 -395 -77 -40 -185 -23 -251 39
-78 73 -83 213 -10 300 54 65 166 91 248 56z m2547 0 c259 -40 475 -130 685
-283 90 -65 225 -195 283 -271 23 -30 44 -57 47 -60 15 -14 93 -145 128 -215
71 -140 127 -315 149 -465 10 -68 10 -354 0 -434 -17 -135 -71 -307 -147 -461
-152 -312 -398 -555 -715 -706 -218 -105 -436 -150 -685 -144 -158 4 -178 6
-290 30 -285 60 -551 206 -759 413 -47 48 -97 102 -111 120 -14 19 -30 39 -36
46 -30 32 -112 171 -155 261 -112 237 -149 414 -144 685 1 91 6 181 10 200 20
103 51 221 77 294 32 88 111 251 134 277 8 8 14 19 14 23 0 14 108 152 175
224 240 258 572 426 940 475 71 10 317 4 400 -9z"/>
<path d="M3458 4375 c-2 -1 -34 -5 -73 -8 -393 -32 -773 -326 -908 -704 -32
-89 -54 -173 -62 -238 -8 -58 -8 -249 0 -285 3 -14 10 -52 16 -85 13 -70 70
-227 107 -294 173 -312 461 -509 827 -566 48 -7 228 -7 270 0 157 28 251 57
365 115 143 72 289 197 383 328 141 197 207 403 208 642 2 549 -403 1012 -949
1086 -41 5 -180 12 -184 9z"/>
</g>
</svg>
